<?xml version="1.0" encoding="utf-8"?>
<!-- Generator: Adobe Illustrator 17.0.0, SVG Export Plug-In . SVG Version: 6.00 Build 0)  -->
<!DOCTYPE svg PUBLIC "-//W3C//DTD SVG 1.1//EN" "http://www.w3.org/Graphics/SVG/1.1/DTD/svg11.dtd">
<svg version="1.1" id="Layer_1" xmlns="http://www.w3.org/2000/svg" xmlns:xlink="http://www.w3.org/1999/xlink" x="0px" y="0px"
	 width="95.828px" height="95.828px" viewBox="0 0 95.828 95.828" enable-background="new 0 0 95.828 95.828" xml:space="preserve">
<g>
	<g>
		<g>
			<path fill="#FFFFFF" d="M0,0.176v95.828h95.828V0.176H0z M10.648,4.502c3.216,0,5.823,2.607,5.823,5.823
				s-2.607,5.823-5.823,5.823s-5.823-2.607-5.823-5.823S7.432,4.502,10.648,4.502z M10.648,91.18c-3.216,0-5.823-2.607-5.823-5.823
				c0-3.216,2.607-5.823,5.823-5.823s5.823,2.607,5.823,5.823C16.471,88.573,13.864,91.18,10.648,91.18z M47.914,89.017
				c-22.603,0-40.927-18.324-40.927-40.927c0-22.603,18.324-40.927,40.927-40.927s40.927,18.323,40.927,40.927
				C88.841,70.694,70.517,89.017,47.914,89.017z M85.181,91.18c-3.216,0-5.823-2.607-5.823-5.823c0-3.216,2.607-5.823,5.823-5.823
				c3.216,0,5.823,2.607,5.823,5.823C91.004,88.573,88.397,91.18,85.181,91.18z M85.181,16.647c-3.216,0-5.823-2.607-5.823-5.823
				s2.607-5.823,5.823-5.823c3.216,0,5.823,2.607,5.823,5.823S88.397,16.647,85.181,16.647z"/>
		</g>
	</g>
</g>
<g>
	<g>
		<circle fill="#FFFFFF" cx="47.914" cy="48.029" r="6.609"/>
	</g>
	<g>
		<path fill="#FFFFFF" d="M81.116,41.442c-2.287-1.908-5.521-3.614-9.354-4.933c-0.769-0.265-1.564-0.515-2.383-0.751
			c0.135-0.55,0.259-1.093,0.368-1.625c1.836-8.914,0.533-15.861-3.402-18.13c-0.962-0.555-2.099-0.836-3.381-0.836
			c-3.692,0-8.37,2.302-13.173,6.481c-0.614,0.534-1.229,1.099-1.843,1.691c-0.41-0.393-0.819-0.771-1.226-1.133
			c-4.987-4.428-10.063-6.967-13.926-6.967c-1.323,0-2.494,0.29-3.481,0.861c-1.931,1.118-3.243,3.398-3.793,6.594
			c-0.506,2.935-0.362,6.589,0.417,10.566c0.157,0.802,0.34,1.62,0.547,2.451c-0.946,0.269-1.861,0.556-2.739,0.863
			c-8.04,2.803-12.841,7.085-12.841,11.455c0,2.282,1.337,4.634,3.868,6.801c2.381,2.039,5.723,3.829,9.666,5.177
			c0.644,0.22,1.312,0.428,2,0.626c-0.222,0.898-0.416,1.779-0.58,2.642c-1.588,8.365-0.277,14.663,3.508,16.846
			c0.997,0.575,2.186,0.866,3.533,0.866c3.842,0,8.8-2.408,13.604-6.607c0.513-0.448,1.028-0.924,1.544-1.422
			c0.667,0.642,1.335,1.251,2.001,1.824c4.671,4.019,9.247,6.233,12.887,6.233c1.312,0,2.476-0.289,3.46-0.859
			c1.975-1.144,3.341-3.479,3.948-6.755c0.572-3.082,0.446-6.871-0.363-10.959c-0.128-0.646-0.277-1.307-0.444-1.979
			c0.469-0.138,0.928-0.281,1.376-0.43c8.639-2.862,14.006-7.462,14.006-12.005C84.922,45.797,83.606,43.52,81.116,41.442z
			 M62.964,18.329c0.72,0,1.326,0.139,1.801,0.413c2.12,1.222,3.614,6.361,1.885,14.753c-0.099,0.482-0.211,0.973-0.333,1.471
			c-3.078-0.71-6.414-1.237-9.899-1.563c-2.038-2.9-4.148-5.535-6.255-7.807c0.568-0.546,1.137-1.069,1.704-1.562
			C55.972,20.461,60.12,18.329,62.964,18.329z M58.243,54.051c-1.164,2.018-2.349,3.93-3.546,5.728
			c-2.198,0.158-4.469,0.239-6.783,0.239c-2.315,0-4.551-0.07-6.694-0.208c-1.264-1.842-2.482-3.766-3.625-5.742
			c-1.144-1.976-2.199-3.971-3.157-5.958c0.96-2.003,2.013-4.006,3.147-5.972c1.14-1.978,2.342-3.888,3.585-5.709
			c2.214-0.169,4.476-0.257,6.744-0.257c2.288,0,4.548,0.087,6.751,0.254c1.224,1.807,2.42,3.712,3.568,5.695
			c1.167,2.016,2.233,3.999,3.192,5.934C60.463,50.038,59.399,52.046,58.243,54.051z M63.132,51.701
			c0.994,2.263,1.826,4.444,2.486,6.517c-2.144,0.489-4.462,0.884-6.906,1.177c0.765-1.213,1.522-2.468,2.27-3.765
			C61.737,54.321,62.454,53.009,63.132,51.701z M48.042,68.424c-1.498-1.619-2.993-3.409-4.45-5.327
			c1.409,0.055,2.851,0.082,4.322,0.082c1.511,0,3.005-0.034,4.476-0.101C50.944,65.045,49.49,66.833,48.042,68.424z M37.185,59.459
			c-2.432-0.27-4.714-0.637-6.82-1.098c0.656-2.112,1.463-4.307,2.4-6.532c0.662,1.279,1.361,2.555,2.095,3.823
			C35.611,56.951,36.388,58.221,37.185,59.459z M32.755,44.386c-0.918-2.177-1.706-4.322-2.35-6.4
			c2.113-0.471,4.366-0.857,6.706-1.15c-0.777,1.212-1.533,2.454-2.265,3.723C34.114,41.829,33.416,43.107,32.755,44.386z
			 M47.949,27.855c1.457,1.579,2.918,3.343,4.356,5.259c-1.449-0.068-2.914-0.104-4.39-0.104c-1.466,0-2.921,0.034-4.358,0.101
			C44.99,31.218,46.463,29.457,47.949,27.855z M60.969,40.537c-0.733-1.266-1.485-2.502-2.253-3.704
			c2.357,0.298,4.62,0.694,6.751,1.18c-0.638,2.042-1.433,4.179-2.369,6.372C62.429,43.117,61.72,41.833,60.969,40.537z
			 M29.042,32.653c-0.705-3.604-0.845-6.862-0.404-9.422c0.381-2.21,1.184-3.771,2.261-4.395c0.499-0.289,1.137-0.435,1.896-0.435
			c3.054,0,7.475,2.307,11.826,6.17c0.369,0.327,0.739,0.67,1.11,1.025c-2.154,2.313-4.277,4.942-6.302,7.799
			c-3.481,0.321-6.809,0.838-9.881,1.536C29.358,34.157,29.188,33.397,29.042,32.653z M25.463,57.014
			c-7.829-2.676-11.395-6.534-11.395-8.986c0-2.355,3.315-5.888,10.72-8.469c0.812-0.283,1.663-0.55,2.548-0.8
			c0.928,3.017,2.143,6.165,3.605,9.342c-1.487,3.231-2.718,6.428-3.654,9.485C26.659,57.405,26.05,57.215,25.463,57.014z
			 M32.903,77.825c-0.786,0-1.444-0.149-1.954-0.443c-2.04-1.177-3.444-5.813-1.981-13.517c0.151-0.797,0.332-1.616,0.541-2.455
			c3.015,0.668,6.361,1.153,9.971,1.444c2.045,2.881,4.186,5.527,6.355,7.85c-0.471,0.454-0.941,0.887-1.408,1.296
			C40.252,75.647,35.945,77.825,32.903,77.825z M66.882,63.055c1.606,8.116,0.054,13.135-2.068,14.364
			c-0.497,0.288-1.128,0.433-1.876,0.433c-2.841,0-6.786-1.993-10.824-5.467c-0.615-0.529-1.236-1.096-1.859-1.697
			c2.077-2.269,4.16-4.914,6.207-7.881c3.583-0.319,6.965-0.84,10.019-1.544C66.632,61.872,66.766,62.47,66.882,63.055z
			 M69.922,57.032c-0.404,0.134-0.818,0.263-1.241,0.388c-0.931-2.952-2.19-6.101-3.75-9.382c1.477-3.185,2.692-6.299,3.6-9.234
			c0.756,0.219,1.492,0.45,2.202,0.695c3.473,1.195,6.362,2.707,8.357,4.371c1.722,1.437,2.67,2.914,2.67,4.159
			C81.76,50.476,78.056,54.337,69.922,57.032z"/>
	</g>
</g>
</svg>
